<?xml version="1.0" encoding="UTF-8"?>
<!DOCTYPE svg PUBLIC "-//W3C//DTD SVG 1.1//EN" "http://www.w3.org/Graphics/SVG/1.1/DTD/svg11.dtd">
<svg xmlns="http://www.w3.org/2000/svg" version="1.1" width="2048px" height="2048px" style="shape-rendering:geometricPrecision; text-rendering:geometricPrecision; image-rendering:optimizeQuality; fill-rule:evenodd; clip-rule:evenodd" xmlns:xlink="http://www.w3.org/1999/xlink">
<g><path style="opacity:1" fill="#ed1c24" d="M -0.5,-0.5 C 682.167,-0.5 1364.83,-0.5 2047.5,-0.5C 2047.5,682.167 2047.5,1364.83 2047.5,2047.5C 1364.83,2047.5 682.167,2047.5 -0.5,2047.5C -0.5,1364.83 -0.5,682.167 -0.5,-0.5 Z"/></g>
<g><path style="opacity:1" fill="#fffefe" d="M 1024.5,145.5 C 1026.37,145.859 1027.87,146.859 1029,148.5C 1313.69,517.024 1598.19,885.691 1882.5,1254.5C 1880.45,1257.74 1877.79,1259.91 1874.5,1261C 1591.67,1042.83 1308.83,824.667 1026,606.5C 742.847,825.075 459.514,1043.41 176,1261.5C 174,1259.5 172,1257.5 170,1255.5C 169.333,1254.5 169.333,1253.5 170,1252.5C 171.385,1251.45 172.385,1250.12 173,1248.5C 457.455,881.224 741.289,513.557 1024.5,145.5 Z"/></g>
<g><path style="opacity:1" fill="#fffefe" d="M 1024.5,786.5 C 1026.37,786.859 1027.87,787.859 1029,789.5C 1313.69,1158.02 1598.19,1526.69 1882.5,1895.5C 1880.52,1897.98 1878.35,1900.32 1876,1902.5C 1592.49,1684.41 1309.15,1466.08 1026,1247.5C 742.486,1465.59 459.153,1683.92 176,1902.5C 174,1900.5 172,1898.5 170,1896.5C 169.333,1895.5 169.333,1894.5 170,1893.5C 175.717,1886.78 181.05,1879.78 186,1872.5C 466.122,1510.89 745.622,1148.89 1024.5,786.5 Z"/></g>
</svg>
