<?xml version="1.0" encoding="UTF-8"?>
<!DOCTYPE svg PUBLIC "-//W3C//DTD SVG 1.1//EN" "http://www.w3.org/Graphics/SVG/1.1/DTD/svg11.dtd">
<svg xmlns="http://www.w3.org/2000/svg" version="1.1" width="186px" height="240px" style="shape-rendering:geometricPrecision; text-rendering:geometricPrecision; image-rendering:optimizeQuality; fill-rule:evenodd; clip-rule:evenodd" xmlns:xlink="http://www.w3.org/1999/xlink">
<g><path style="opacity:0.95" fill="#e82026" d="M 71.5,-0.5 C 85.1667,-0.5 98.8333,-0.5 112.5,-0.5C 134.312,2.11875 155.646,7.28542 176.5,15C 176.377,19.1249 174.877,22.9583 172,26.5C 131.772,9.63447 90.2721,5.80113 47.5,15C 35.5736,17.6421 24.0736,21.4755 13,26.5C 9.5854,23.2079 8.0854,19.3746 8.5,15C 28.989,7.21498 49.989,2.04831 71.5,-0.5 Z"/></g>
<g><path style="opacity:0.975" fill="#e82026" d="M 66.5,15.5 C 69.5184,15.3354 72.5184,15.502 75.5,16C 81.2945,22.447 86.9611,28.947 92.5,35.5C 97.8038,29.1916 103.137,22.8583 108.5,16.5C 129.36,16.2123 149.36,20.3789 168.5,29C 169.517,30.0495 169.684,31.2161 169,32.5C 163.103,39.0668 156.103,44.0668 148,47.5C 147.228,47.3552 146.561,47.0219 146,46.5C 143.568,39.1859 138.401,35.6859 130.5,36C 125.845,35.5008 121.179,35.3342 116.5,35.5C 108.897,80.0083 100.731,124.342 92,168.5C 83.9488,124.192 76.1155,79.8588 68.5,35.5C 60.6759,35.0321 53.0092,35.8654 45.5,38C 41.5616,40.2667 38.7282,43.4334 37,47.5C 27.9549,43.8925 20.4549,38.2258 14.5,30.5C 21.1056,26.7956 28.1056,23.9622 35.5,22C 45.8505,19.2312 56.1838,17.0645 66.5,15.5 Z"/></g>
<g><path style="opacity:0.936" fill="#e82026" d="M -0.5,215.5 C 9.85478,215.168 20.1881,215.501 30.5,216.5C 29.6872,217.814 28.6872,218.981 27.5,220C 24.1832,220.498 20.8499,220.665 17.5,220.5C 17.5,226.833 17.5,233.167 17.5,239.5C 15.5,239.5 13.5,239.5 11.5,239.5C 11.5,233.167 11.5,226.833 11.5,220.5C 7.18691,221.01 3.18691,220.343 -0.5,218.5C -0.5,217.5 -0.5,216.5 -0.5,215.5 Z"/></g>
<g><path style="opacity:0.944" fill="#e82126" d="M 40.5,216.5 C 50.008,215.177 59.6746,215.177 69.5,216.5C 69.032,218.134 68.032,219.3 66.5,220C 58.8333,220.667 51.1667,220.667 43.5,220C 42.3636,218.855 41.3636,217.688 40.5,216.5 Z"/></g>
<g><path style="opacity:0.907" fill="#e72027" d="M 109.5,239.5 C 100.167,239.5 90.8333,239.5 81.5,239.5C 81.9156,237.248 83.249,235.748 85.5,235C 91.4908,234.501 97.4908,234.334 103.5,234.5C 103.5,233.167 103.5,231.833 103.5,230.5C 96.5,230.5 89.5,230.5 82.5,230.5C 82.5,225.5 82.5,220.5 82.5,215.5C 91.5246,215.168 100.525,215.502 109.5,216.5C 108.687,217.814 107.687,218.981 106.5,220C 100.175,220.5 93.8421,220.666 87.5,220.5C 87.5,221.833 87.5,223.167 87.5,224.5C 94.8333,224.5 102.167,224.5 109.5,224.5C 109.5,229.5 109.5,234.5 109.5,239.5 Z"/></g>
<g><path style="opacity:0.962" fill="#e82026" d="M 146.5,239.5 C 138.167,239.5 129.833,239.5 121.5,239.5C 121.5,231.5 121.5,223.5 121.5,215.5C 123.5,215.5 125.5,215.5 127.5,215.5C 127.5,221.833 127.5,228.167 127.5,234.5C 134.5,234.5 141.5,234.5 148.5,234.5C 148.608,236.514 147.942,238.18 146.5,239.5 Z"/></g>
<g><path style="opacity:0.943" fill="#e82126" d="M 185.5,215.5 C 185.5,216.167 185.5,216.833 185.5,217.5C 184.691,218.469 183.691,219.302 182.5,220C 174.833,220.667 167.167,220.667 159.5,220C 157.963,218.89 157.297,217.39 157.5,215.5C 166.833,215.5 176.167,215.5 185.5,215.5 Z"/></g>
<g><path style="opacity:0.834" fill="#e82026" d="M 40.5,225.5 C 49.9856,224.506 59.6522,224.173 69.5,224.5C 69.607,226.903 68.607,228.736 66.5,230C 59.1667,230.667 51.8333,230.667 44.5,230C 42.9297,228.603 41.5964,227.103 40.5,225.5 Z"/></g>
<g><path style="opacity:0.893" fill="#e82027" d="M 185.5,224.5 C 185.5,229.5 185.5,234.5 185.5,239.5C 183.5,239.5 181.5,239.5 179.5,239.5C 179.5,236.5 179.5,233.5 179.5,230.5C 174.167,230.5 168.833,230.5 163.5,230.5C 163.5,233.5 163.5,236.5 163.5,239.5C 161.5,239.5 159.5,239.5 157.5,239.5C 157.5,234.5 157.5,229.5 157.5,224.5C 166.833,224.5 176.167,224.5 185.5,224.5 Z"/></g>
<g><path style="opacity:0.892" fill="#e82026" d="M 67.5,239.5 C 59.5,239.5 51.5,239.5 43.5,239.5C 42.3862,238.115 41.3862,236.615 40.5,235C 50.1609,234.5 59.8276,234.334 69.5,234.5C 69.6085,236.514 68.9418,238.18 67.5,239.5 Z"/></g>
</svg>
