<?xml version="1.0" standalone="no"?>
<!DOCTYPE svg PUBLIC "-//W3C//DTD SVG 20010904//EN"
 "http://www.w3.org/TR/2001/REC-SVG-20010904/DTD/svg10.dtd">
<svg version="1.0" xmlns="http://www.w3.org/2000/svg"
 width="1600.000000pt" height="900.000000pt" viewBox="0 0 1600.000000 900.000000"
 preserveAspectRatio="xMidYMid meet">

<g transform="translate(0.000000,900.000000) scale(0.100000,-0.100000)"
fill="#000000" stroke="none">
<path d="M780 8780 c0 -5 -15 -10 -34 -10 -49 0 -164 -37 -216 -70 -54 -35
-108 -90 -143 -146 -30 -49 -67 -156 -67 -195 0 -15 -5 -31 -10 -34 -12 -8
-13 -95 -1 -95 4 0 11 -25 14 -56 6 -57 50 -165 88 -212 11 -15 54 -62 95
-104 41 -42 74 -78 74 -80 3 -23 2654 -2667 2810 -2802 93 -81 156 -123 225
-148 l60 -23 1905 -3 c2098 -2 1953 -7 2033 59 21 17 44 44 53 61 17 32 29
164 40 423 15 350 -55 514 -256 595 -68 27 -492 213 -580 253 -36 17 -67 31
-70 32 -3 1 -45 20 -93 43 -49 23 -92 42 -95 42 -4 0 -124 51 -267 114 -143
63 -305 133 -360 156 -55 24 -118 52 -140 63 -22 12 -42 22 -45 22 -3 1 -34
15 -70 32 -69 31 -357 158 -600 263 -80 35 -179 79 -220 98 -41 19 -77 36 -80
37 -3 1 -34 15 -70 32 -66 30 -91 42 -500 219 -124 53 -254 111 -290 127 -36
17 -67 31 -70 32 -3 0 -18 8 -35 17 -16 8 -73 33 -125 56 -52 22 -210 89 -350
150 -140 60 -295 126 -345 147 -49 20 -135 59 -190 85 -55 26 -208 94 -340
150 -462 197 -520 222 -575 248 -30 15 -57 27 -60 28 -3 0 -36 15 -75 33 -66
30 -143 64 -410 176 -234 98 -412 163 -467 170 -32 4 -58 11 -58 16 0 5 -20 9
-45 9 -25 0 -45 -4 -45 -10z"/>
<path d="M15050 8750 c-100 -21 -85 -16 -360 -132 -118 -50 -285 -120 -370
-155 -85 -36 -164 -70 -175 -76 -11 -6 -22 -12 -25 -12 -3 0 -14 -6 -25 -12
-19 -10 -154 -68 -615 -263 -107 -46 -229 -99 -270 -119 -41 -19 -77 -36 -80
-37 -3 0 -36 -15 -75 -33 -38 -18 -92 -42 -120 -53 -27 -11 -167 -71 -310
-133 -143 -62 -300 -130 -350 -150 -49 -20 -103 -44 -120 -53 -16 -9 -32 -17
-35 -17 -3 0 -18 -8 -35 -17 -16 -8 -151 -68 -300 -132 -506 -220 -570 -248
-605 -270 -19 -11 -36 -20 -38 -18 -1 1 -15 -4 -30 -12 -15 -7 -112 -50 -217
-96 -294 -126 -577 -251 -610 -268 -16 -9 -32 -17 -35 -17 -3 -1 -36 -16 -75
-34 -38 -18 -112 -50 -165 -73 -132 -56 -194 -83 -430 -185 -113 -49 -231
-100 -262 -112 -32 -13 -58 -28 -58 -33 0 -5 -4 -7 -9 -3 -6 3 -25 -3 -44 -14
-19 -11 -138 -64 -264 -120 -506 -221 -541 -243 -587 -374 -65 -184 -68 -362
-15 -727 11 -74 23 -137 27 -141 4 -4 50 -17 102 -30 l95 -24 1874 -3 c1724
-2 1879 -1 1925 14 101 33 191 89 311 192 22 19 198 192 391 383 193 192 356
349 362 349 7 0 12 3 12 8 0 10 9 19 361 362 416 406 1302 1293 1398 1399 42
47 140 151 219 230 78 80 142 150 142 157 0 6 9 19 21 30 38 34 98 147 116
219 10 39 21 72 26 73 10 5 9 126 -1 138 -5 5 -14 35 -21 66 -15 72 -71 158
-146 226 -65 59 -105 82 -184 106 -72 21 -213 20 -321 -4z"/>
<path d="M5440 4191 l-1755 -6 -56 -23 c-74 -30 -159 -82 -238 -146 -52 -41
-1313 -1281 -1621 -1593 -467 -472 -1101 -1114 -1198 -1213 -71 -72 -142 -155
-167 -195 -43 -69 -85 -184 -85 -231 0 -13 -4 -24 -10 -24 -12 0 -13 -104 -1
-128 5 -9 14 -39 20 -67 37 -157 189 -309 333 -332 21 -3 41 -10 44 -14 7 -12
174 -12 174 0 0 4 26 11 58 14 73 7 204 50 395 131 84 35 240 101 347 146 107
46 204 88 215 93 11 6 22 12 25 12 3 0 14 6 25 12 11 5 97 43 190 83 94 39
229 97 300 127 177 76 369 159 435 191 30 14 57 26 60 27 3 1 35 16 72 33 37
18 70 32 73 32 4 0 124 51 268 114 144 63 323 140 397 171 74 32 149 65 165
73 17 9 32 17 35 17 3 1 34 15 70 32 62 29 225 100 630 275 102 45 199 88 215
96 17 9 32 17 35 17 3 1 43 20 90 42 47 22 130 59 185 82 144 62 497 218 585
259 41 19 77 36 80 37 3 0 19 8 35 17 17 9 71 33 120 53 50 20 205 86 345 147
140 61 302 131 360 156 58 24 119 52 135 60 17 9 32 17 35 17 3 0 19 8 35 17
17 8 136 61 265 117 129 57 257 112 285 124 114 50 187 134 233 264 25 75 27
86 26 283 0 173 -4 232 -27 379 -15 96 -32 178 -38 182 -18 11 -244 38 -349
42 -52 2 -885 1 -1850 -2z"/>
<path d="M8610 4181 c-159 -7 -183 -15 -231 -82 -62 -88 -101 -493 -65 -681
44 -226 133 -339 315 -398 52 -17 470 -197 516 -223 11 -6 22 -12 25 -12 3 -1
37 -16 75 -34 39 -18 92 -42 119 -53 28 -10 174 -73 325 -139 152 -67 323
-141 381 -166 58 -25 114 -51 125 -58 21 -13 542 -245 550 -245 6 0 365 -159
390 -173 11 -6 22 -12 25 -13 3 0 40 -17 82 -37 43 -20 137 -62 210 -93 228
-97 539 -234 646 -286 57 -27 156 -71 220 -97 64 -27 207 -88 317 -136 110
-48 248 -106 306 -130 59 -24 122 -51 140 -61 19 -10 36 -19 39 -19 3 0 19 -8
35 -17 27 -14 357 -156 700 -301 66 -28 149 -64 185 -80 36 -17 67 -31 70 -32
3 -1 34 -15 70 -32 36 -16 124 -53 195 -83 72 -29 231 -96 355 -148 246 -104
297 -122 347 -122 18 0 33 -4 33 -10 0 -12 152 -14 166 -2 5 5 36 15 69 21
179 38 340 196 361 355 4 26 11 49 15 52 12 7 12 114 0 114 -4 0 -11 17 -13
38 -8 55 -48 148 -93 216 -22 33 -44 66 -50 75 -23 34 -78 94 -214 231 -423
427 -1652 1657 -1728 1728 -48 46 -212 206 -363 356 -670 663 -704 693 -819
737 -130 49 -115 49 -1961 47 -949 -1 -1790 -4 -1870 -7z"/>
</g>
</svg>
