<svg xmlns="http://www.w3.org/2000/svg" width="240" height="180" viewBox="0 0 240 180" version="1.1"><path d="" stroke="none" fill="#080404" fill-rule="evenodd"/><path d="M 44 89.500 L 44 165 119.500 165 L 195 165 195 89.500 L 195 14 119.500 14 L 44 14 44 89.500 M 57 89.500 L 57 152 94.500 152 L 132 152 132 131.740 L 132 111.480 113 92.500 L 94 73.520 94 50.260 L 94 27 75.500 27 L 57 27 57 89.500 M 108 47.760 L 108 68.520 126.500 87 L 145 105.480 145 128.740 L 145 152 163.500 152 L 182 152 182 89.500 L 182 27 145 27 L 108 27 108 47.760" stroke="none" fill="#040404" fill-rule="evenodd"/></svg>