<?xml version="1.0" encoding="UTF-8"?>
<!DOCTYPE svg PUBLIC "-//W3C//DTD SVG 1.1//EN" "http://www.w3.org/Graphics/SVG/1.1/DTD/svg11.dtd">
<svg xmlns="http://www.w3.org/2000/svg" version="1.1" width="777px" height="1732px" style="shape-rendering:geometricPrecision; text-rendering:geometricPrecision; image-rendering:optimizeQuality; fill-rule:evenodd; clip-rule:evenodd" xmlns:xlink="http://www.w3.org/1999/xlink">
<g><path style="opacity:1" fill="#46b2e9" d="M 563.5,1684.5 C 563.715,1682.82 563.048,1681.82 561.5,1681.5C 557.799,1674.76 554.633,1667.76 552,1660.5C 368.295,1117.22 184.128,574.217 -0.5,31.5C -0.5,27.5 -0.5,23.5 -0.5,19.5C 1.90825,15.2742 5.57491,12.7742 10.5,12C 51.8333,11.3333 93.1667,11.3333 134.5,12C 157.696,12.8432 175.863,22.6766 189,41.5C 199.191,59.8884 207.191,79.2217 213,99.5C 393.333,633.833 573.667,1168.17 754,1702.5C 756.396,1709.08 755.23,1714.91 750.5,1720C 749.5,1720.33 748.5,1720.67 747.5,1721C 706.167,1721.67 664.833,1721.67 623.5,1721C 597.007,1719.26 577.007,1707.1 563.5,1684.5 Z"/></g>
<g><path style="opacity:0.937" fill="#a7d7f3" d="M 561.5,1681.5 C 563.048,1681.82 563.715,1682.82 563.5,1684.5C 562.599,1683.71 561.932,1682.71 561.5,1681.5 Z"/></g>
</svg>
