<?xml version="1.0" encoding="UTF-8"?>
<!DOCTYPE svg PUBLIC "-//W3C//DTD SVG 1.1//EN" "http://www.w3.org/Graphics/SVG/1.1/DTD/svg11.dtd">
<svg xmlns="http://www.w3.org/2000/svg" version="1.1" width="640px" height="320px" style="shape-rendering:geometricPrecision; text-rendering:geometricPrecision; image-rendering:optimizeQuality; fill-rule:evenodd; clip-rule:evenodd" xmlns:xlink="http://www.w3.org/1999/xlink">
<g><path style="opacity:1" fill="#024ea2" d="M -0.5,-0.5 C 212.833,-0.5 426.167,-0.5 639.5,-0.5C 639.5,17.1667 639.5,34.8333 639.5,52.5C 426.167,52.5 212.833,52.5 -0.5,52.5C -0.5,34.8333 -0.5,17.1667 -0.5,-0.5 Z"/></g>
<g><path style="opacity:1" fill="#f6f9fb" d="M -0.5,52.5 C 212.833,52.5 426.167,52.5 639.5,52.5C 639.5,55.5 639.5,58.5 639.5,61.5C 426.167,61.5 212.833,61.5 -0.5,61.5C -0.5,58.5 -0.5,55.5 -0.5,52.5 Z"/></g>
<g><path style="opacity:1" fill="#ed1d27" d="M -0.5,61.5 C 212.833,61.5 426.167,61.5 639.5,61.5C 639.5,126.833 639.5,192.167 639.5,257.5C 426.167,257.5 212.833,257.5 -0.5,257.5C -0.5,192.167 -0.5,126.833 -0.5,61.5 Z"/></g>
<g><path style="opacity:1" fill="#fffcfc" d="M 201.5,88.5 C 244.156,86.3518 271.323,105.685 283,146.5C 286.881,182.579 272.715,208.745 240.5,225C 203.804,237.322 174.304,227.822 152,196.5C 133.071,158.391 140.238,126.225 173.5,100C 182.323,94.6767 191.656,90.8434 201.5,88.5 Z"/></g>
<g><path style="opacity:1" fill="#ed2029" d="M 148.5,139.5 C 164.833,138.833 181.167,138.167 197.5,137.5C 202.377,122.035 207.544,106.702 213,91.5C 218.172,107.017 223.339,122.517 228.5,138C 244.833,138.333 261.167,138.667 277.5,139C 263.743,147.936 250.743,157.769 238.5,168.5C 242.697,182.593 247.197,196.593 252,210.5C 252.667,211.833 252.667,213.167 252,214.5C 239.268,204.764 226.268,195.431 213,186.5C 199.587,195.459 186.42,204.792 173.5,214.5C 177.575,199.086 182.241,183.586 187.5,168C 174.856,158.011 161.856,148.511 148.5,139.5 Z"/></g>
<g><path style="opacity:1" fill="#f9c1c4" d="M 197.5,137.5 C 181.167,138.167 164.833,138.833 148.5,139.5C 147.957,139.44 147.624,139.107 147.5,138.5C 164.153,137.501 180.82,137.167 197.5,137.5 Z"/></g>
<g><path style="opacity:1" fill="#f6f9fb" d="M -0.5,257.5 C 212.833,257.5 426.167,257.5 639.5,257.5C 639.5,260.5 639.5,263.5 639.5,266.5C 426.167,266.5 212.833,266.5 -0.5,266.5C -0.5,263.5 -0.5,260.5 -0.5,257.5 Z"/></g>
<g><path style="opacity:1" fill="#024ea2" d="M -0.5,266.5 C 212.833,266.5 426.167,266.5 639.5,266.5C 639.5,284.167 639.5,301.833 639.5,319.5C 426.167,319.5 212.833,319.5 -0.5,319.5C -0.5,301.833 -0.5,284.167 -0.5,266.5 Z"/></g>
</svg>
