<?xml version="1.0" encoding="UTF-8"?>
<svg width="278.672" height="360.43799" version="1.1" viewBox="0 0 278.67201 360.43799" xml:space="preserve" xmlns="http://www.w3.org/2000/svg" xmlns:cc="http://creativecommons.org/ns#" xmlns:dc="http://purl.org/dc/elements/1.1/" xmlns:rdf="http://www.w3.org/1999/02/22-rdf-syntax-ns#">
  
    
  <g fill="#e82127">
    <path transform="translate(-33.796,-64.797)" d="m173.146 317.299 35.476-199.519c33.815 0 44.481 3.708 46.021 18.843 0 0 22.684-8.458 34.125-25.636-44.646-20.688-89.505-21.621-89.505-21.621l-26.176 31.882 0.059-4e-3 -26.176-31.883s-44.86 0.934-89.5 21.622c11.431 17.178 34.124 25.636 34.124 25.636 1.549-15.136 12.202-18.844 45.79-18.868l35.762 199.548"/>
    <path transform="translate(-33.796,-64.797)" d="m173.132 80.157c36.09-0.276 77.399 5.583 119.687 24.014 5.652-10.173 7.105-14.669 7.105-14.669-46.227-18.289-89.518-24.548-126.797-24.705-37.277 0.157-80.566 6.417-126.787 24.705 0 0 2.062 5.538 7.1 14.669 42.28-18.431 83.596-24.29 119.687-24.014h5e-3"/>
  </g>
<metadata><rdf:RDF><cc:Work rdf:about=""><dc:subject><rdf:Bag><rdf:li>Tesla</rdf:li></rdf:Bag></dc:subject></cc:Work></rdf:RDF></metadata></svg>